<svg width="16" height="16" viewBox="0 0 16 16" fill="none" xmlns="http://www.w3.org/2000/svg">
<path d="M5.47991 1.41737C5.33956 1.4632 5.09895 1.70953 5.05599 1.85561C5.03021 1.94441 5.02162 2.62898 5.02162 4.63114V7.28636L4.88413 7.43817C4.73805 7.59571 4.6779 7.74179 4.6779 7.9337V8.05114L4.54328 8.07119C4.31699 8.10269 3.98187 8.22013 3.83865 8.31465C3.52358 8.52089 3.40614 8.76149 3.34312 9.3143C3.26579 9.99601 3.14262 10.4629 2.90202 10.967C2.49242 11.832 1.8279 12.5195 0.997246 12.9377C0.685035 13.0981 0.630613 13.1639 0.685035 13.3158C0.716542 13.4074 1.11755 13.6881 1.53574 13.9087L1.80212 14.0519L2.07423 13.8686C2.4781 13.5936 3.06242 12.9978 3.34599 12.571C3.62383 12.1528 3.6983 12.1042 3.86157 12.2445C4.01338 12.3734 3.95323 12.5367 3.56081 13.0608C3.2572 13.4704 2.82182 13.8972 2.40363 14.2008L2.32056 14.261L2.54684 14.3355C2.67001 14.3784 2.90488 14.4443 3.06815 14.4815L3.36318 14.5531L3.6983 14.3269C4.46307 13.8141 4.98725 13.2241 5.37966 12.4364C5.54865 12.0927 5.5773 12.064 5.71192 12.064C5.83222 12.064 5.9382 12.1643 5.9382 12.2789C5.9382 12.4335 5.52574 13.1611 5.21066 13.5678C5.01875 13.817 4.55473 14.2753 4.3084 14.4644C4.09931 14.6276 4.09644 14.6276 4.17951 14.6448C4.31699 14.6763 5.04453 14.6734 5.39398 14.6391C5.83795 14.599 6.40508 14.493 6.78604 14.3784L7.09825 14.2839L7.28443 13.9058C7.81147 12.8431 8.03488 11.8406 7.98905 10.7465C7.96614 10.1851 7.87448 9.39164 7.79714 9.1138C7.65106 8.58104 7.33312 8.24018 6.86051 8.11415C6.74021 8.07978 6.74021 8.07978 6.74021 7.94229C6.74021 7.73606 6.6686 7.5642 6.52539 7.42385L6.39649 7.29782V4.63687C6.39649 2.62898 6.3879 1.94441 6.36212 1.85561C6.31629 1.69807 6.07855 1.46034 5.92101 1.41451C5.78066 1.37441 5.6174 1.37441 5.47991 1.41737ZM6.21031 7.75325C6.259 7.79908 6.28192 7.8535 6.28192 7.92511V8.02536H5.70905H5.13619V7.92511C5.13619 7.8535 5.1591 7.79908 5.2078 7.75325C5.27368 7.6845 5.288 7.68164 5.70905 7.68164C6.13011 7.68164 6.14443 7.6845 6.21031 7.75325ZM6.32488 9.01355C6.43946 9.12812 6.41081 9.28852 6.26187 9.36586C6.17594 9.41455 4.78388 9.41455 4.69795 9.36586C4.549 9.28852 4.52036 9.12812 4.63493 9.01355L4.70368 8.94194H5.47991H6.25614L6.32488 9.01355Z" fill="#0D0D0D"/>
<path d="M11.2656 4.98058C10.6183 5.20686 10.4264 6.0146 10.9076 6.49294C11.0938 6.68199 11.2656 6.75073 11.5521 6.75073C11.8385 6.75073 12.0104 6.68199 12.1965 6.49294C12.3856 6.30676 12.4515 6.1349 12.4543 5.84847C12.4543 5.62219 12.4457 5.59068 12.3512 5.41882C12.1335 5.02068 11.6752 4.8345 11.2656 4.98058Z" fill="#0D0D0D"/>
<path d="M13.8436 5.4275C13.7032 5.47333 13.4626 5.71966 13.4196 5.86574C13.3394 6.13499 13.3967 6.34981 13.6001 6.55031C13.7462 6.69926 13.8923 6.76514 14.0727 6.76514C14.4279 6.76514 14.7601 6.43288 14.7601 6.0777C14.7601 5.89725 14.6943 5.75117 14.5453 5.60509C14.3448 5.40172 14.1099 5.34443 13.8436 5.4275ZM14.2302 5.92016C14.2761 5.96313 14.3019 6.02328 14.3019 6.0777C14.3019 6.13212 14.2761 6.19227 14.2302 6.23524C14.1873 6.28107 14.1271 6.30685 14.0727 6.30685C14.0183 6.30685 13.9581 6.28107 13.9152 6.23524C13.8693 6.19227 13.8436 6.13212 13.8436 6.0777C13.8436 6.02328 13.8693 5.96313 13.9152 5.92016C13.9581 5.87433 14.0183 5.84855 14.0727 5.84855C14.1271 5.84855 14.1873 5.87433 14.2302 5.92016Z" fill="#0D0D0D"/>
<path d="M9.79906 6.57607C9.51262 6.67919 9.34649 6.82813 9.23192 7.08879L9.17177 7.22341H8.88247C8.50438 7.22341 8.39268 7.25778 8.21509 7.43823C7.94298 7.70748 7.92579 8.06552 8.17212 8.34909C8.22941 8.41497 8.35544 8.61547 8.45283 8.79592L8.63328 9.11959L8.78795 11.0731C8.87388 12.1443 8.95408 13.101 8.97127 13.1955C9.06293 13.7913 9.47539 14.2754 10.0568 14.4759C10.2459 14.5417 10.2602 14.5417 11.6666 14.5417C13.073 14.5417 13.0873 14.5417 13.2763 14.4759C13.8377 14.2811 14.2531 13.8085 14.3591 13.2385C14.3705 13.1669 14.4507 12.2532 14.5338 11.2048L14.6827 9.30004L14.7601 9.18547C14.803 9.12245 14.9491 8.84748 15.0866 8.57823C15.2957 8.16004 15.3329 8.06265 15.3329 7.94235C15.3329 7.74471 15.2642 7.57286 15.1267 7.4325C14.9405 7.24346 14.8489 7.22341 14.1242 7.22341C13.5656 7.22341 13.4998 7.21768 13.4998 7.17758C13.4998 6.86823 13.1417 6.53597 12.8123 6.53597C12.4829 6.53597 12.1249 6.86823 12.1249 7.17758C12.1249 7.21768 12.0619 7.22341 11.5434 7.22341H10.9591L10.8617 7.0315C10.6641 6.64195 10.1886 6.43858 9.79906 6.57607ZM10.3347 7.09165C10.3891 7.13461 10.4349 7.18044 10.4349 7.19763C10.4349 7.21195 10.2774 7.22341 10.0626 7.22341C9.85921 7.22341 9.69021 7.21195 9.69021 7.20049C9.69021 7.16612 9.77328 7.09451 9.87639 7.03723C10.0024 6.97135 10.2058 6.99426 10.3347 7.09165ZM12.9699 7.06587C13.0988 7.1919 13.0701 7.22341 12.8123 7.22341C12.6261 7.22341 12.5832 7.21482 12.5832 7.18044C12.5832 7.10311 12.7178 6.99426 12.8123 6.99426C12.8667 6.99426 12.9269 7.02004 12.9699 7.06587ZM9.83343 7.91085V8.13999H9.2176C8.59891 8.13999 8.59891 8.13999 8.53016 8.06838C8.48433 8.02542 8.45855 7.96527 8.45855 7.91085C8.45855 7.85642 8.48433 7.79627 8.53016 7.75331C8.59891 7.6817 8.59891 7.6817 9.2176 7.6817H9.83343V7.91085ZM14.803 7.75331C14.8489 7.79627 14.8746 7.85642 14.8746 7.91085C14.8746 7.96527 14.8489 8.02542 14.803 8.06838C14.7343 8.13999 14.7343 8.13999 14.1156 8.13999H13.4998V7.91085V7.6817H14.1156C14.7343 7.6817 14.7343 7.6817 14.803 7.75331ZM9.83343 8.82743V9.05371L9.95659 9.13677C10.412 9.45185 11.1023 9.68672 11.701 9.73255C12.228 9.77265 12.904 9.58647 13.3909 9.26567L13.4998 9.1912V8.89617V8.59828H13.8893H14.2817L14.2617 8.8618L14.2416 9.12818L14.0497 9.30863C13.2706 10.039 12.2165 10.3427 11.194 10.1307C10.6899 10.0276 10.0712 9.77265 9.68162 9.50914C9.44961 9.3516 9.14313 9.05944 9.0973 8.95059C9.07725 8.89904 9.06006 8.79878 9.06006 8.72718V8.59828H9.44675H9.83343V8.82743ZM9.89071 10.1593C10.7557 10.5947 11.7096 10.7494 12.523 10.5861C13.0644 10.4773 13.6745 10.208 14.0497 9.91014C14.1127 9.86145 14.1671 9.82708 14.1729 9.8328C14.1843 9.84713 13.9437 12.8976 13.9122 13.1325C13.8864 13.3387 13.7203 13.6452 13.5628 13.7856C13.4883 13.8514 13.3451 13.946 13.242 13.9947L13.0558 14.0835H11.6666H10.2774L10.0855 13.9918C9.97951 13.9431 9.83629 13.8486 9.76755 13.7856C9.6186 13.6481 9.47539 13.3903 9.43242 13.1927C9.40951 13.0781 9.14599 9.90441 9.14599 9.73542C9.14599 9.70105 9.22046 9.73828 9.4181 9.87291C9.56991 9.97602 9.78187 10.1049 9.89071 10.1593Z" fill="#0D0D0D"/>
<path d="M9.8335 11.2791V11.8978L9.91656 11.9809C9.96239 12.0267 10.0225 12.0639 10.0512 12.0639C10.077 12.0639 10.14 12.0954 10.1887 12.1327C10.3433 12.2501 10.4579 12.2931 10.6069 12.2931C10.7558 12.2931 10.8704 12.2501 11.0251 12.1327C11.1368 12.0467 11.1511 12.0467 11.2771 12.147C11.5149 12.336 11.7956 12.3418 12.0533 12.1642L12.2109 12.0582L12.3684 12.1642C12.6262 12.3418 12.9069 12.336 13.1447 12.147C13.2019 12.1012 13.2793 12.0639 13.3136 12.0639C13.348 12.0639 13.4024 12.0353 13.4368 11.9981C13.497 11.935 13.4998 11.9064 13.4998 11.3536C13.4998 11.0356 13.497 10.775 13.4941 10.775C13.4884 10.775 13.3595 10.8208 13.2077 10.8752C12.7293 11.0442 12.4057 11.0987 11.8672 11.1015C11.2427 11.1015 10.6899 10.9955 10.1085 10.7607C9.97098 10.7062 9.85355 10.6604 9.84495 10.6604C9.83922 10.6604 9.8335 10.9383 9.8335 11.2791Z" fill="#0D0D0D"/>
</svg>
